<svg width="128" height="93" viewBox="0 0 128 93" fill="none" xmlns="http://www.w3.org/2000/svg">
<path d="M121.441 89.6116H123.015L121.782 0.330078H121.166L121.19 2.11126H107.377L107.402 0.330078H106.785L105.553 89.6116H107.126L106.249 83.8228H122.318L121.441 89.6116V89.6116ZM120.792 25.2666H107.057L107.208 14.3569H121.359L120.792 25.2666ZM121.519 25.9345L120.952 36.8442H107.615L107.048 25.9345H121.519V25.9345ZM121.679 37.5122L121.112 48.4219H107.216L106.888 37.5122H121.679V37.5122ZM121.839 49.0898L121.272 59.9995H107.056L106.728 49.0898H121.839V49.0898ZM121.999 60.6675L121.432 71.5772H106.896L106.569 60.6675H121.999V60.6675ZM121.199 2.77921L121.35 13.6889H107.217L107.368 2.77921H121.199ZM108.327 85.2241L106.409 72.2452H122.158L119.143 85.4905L108.327 85.2241V85.2241Z" fill="#3F3D56"/>
<path d="M111.165 8.44653C117.021 8.44653 121.767 13.6025 121.767 19.9627C121.767 26.323 117.021 28.7378 111.165 28.7378C105.31 28.7378 100.564 26.323 100.564 19.9627C100.564 13.6025 105.31 8.44653 111.165 8.44653Z" fill="#2F2E41"/>
<path d="M114.284 27.802L117.109 26.0325L118.026 33.5077L115.2 34.149L114.284 27.802Z" fill="#2F2E41"/>
<path d="M111.253 28.4028L108.237 28.9949L109.215 34.8549L112.231 34.2628L111.253 28.4028Z" fill="#2F2E41"/>
<path d="M110.816 36.0877C111.893 35.099 112.488 33.9427 112.146 33.5049C111.804 33.0672 110.655 33.5137 109.578 34.5024C108.502 35.491 107.907 36.6474 108.248 37.0851C108.59 37.5229 109.74 37.0763 110.816 36.0877Z" fill="#2F2E41"/>
<path d="M116.722 34.9283C117.798 33.9396 118.394 32.7833 118.052 32.3455C117.71 31.9077 116.56 32.3543 115.484 33.343C114.408 34.3316 113.812 35.4879 114.154 35.9257C114.496 36.3635 115.646 35.9169 116.722 34.9283Z" fill="#2F2E41"/>
<path d="M110.542 20.6214C112.608 20.6214 114.284 19.1073 114.284 17.2395C114.284 15.3718 112.608 13.8577 110.542 13.8577C108.475 13.8577 106.8 15.3718 106.8 17.2395C106.8 19.1073 108.475 20.6214 110.542 20.6214Z" fill="white"/>
<path d="M109.295 16.5632C109.983 16.5632 110.542 15.9575 110.542 15.2104C110.542 14.4633 109.983 13.8577 109.295 13.8577C108.606 13.8577 108.047 14.4633 108.047 15.2104C108.047 15.9575 108.606 16.5632 109.295 16.5632Z" fill="#3F3D56"/>
<path d="M119.268 7.98911C119.42 3.94462 116.195 0.518902 112.065 0.337572C107.934 0.156241 104.463 3.28794 104.311 7.33243C104.159 11.3769 107.03 12.2959 111.16 12.4772C115.29 12.6586 119.116 12.0336 119.268 7.98911V7.98911Z" fill="#0066FF"/>
<path d="M106.952 18.8858C107.148 17.9613 105.105 16.6646 102.389 15.9896C99.6741 15.3145 97.3145 15.5168 97.1192 16.4413C96.9238 17.3658 98.9666 18.6624 101.682 19.3375C104.397 20.0125 106.757 19.8103 106.952 18.8858Z" fill="#2F2E41"/>
<path d="M126.754 22.4575C126.95 21.533 124.907 20.2364 122.192 19.5613C119.476 18.8863 117.117 19.0886 116.921 20.0131C116.726 20.9376 118.769 22.2342 121.484 22.9092C124.199 23.5843 126.559 23.382 126.754 22.4575Z" fill="#2F2E41"/>
<path d="M114.243 24.5711C114.49 25.8677 113.59 27.1101 112.234 27.3462C110.878 27.5822 109.578 26.7224 109.331 25.4259L109.33 25.4212C109.085 24.1244 110.134 23.6655 111.49 23.4308C112.847 23.196 113.997 23.2743 114.243 24.5711V24.5711Z" fill="white"/>
<path d="M77.183 56.8171C78.2026 53.9241 78.3502 51.2974 77.5128 50.9502C76.6754 50.6031 75.1701 52.667 74.1505 55.56C73.131 58.4531 72.9833 61.0797 73.8207 61.4269C74.6581 61.774 76.1634 59.7102 77.183 56.8171Z" fill="#2F2E41"/>
<path d="M55.7922 62.664C56.6748 56.4486 61.7993 52.2277 67.2381 53.2363C72.677 54.245 76.3705 60.1012 75.4879 66.3166C74.6053 72.532 69.4808 74.1056 64.042 73.097C58.6031 72.0884 54.9096 68.8794 55.7922 62.664Z" fill="#2F2E41"/>
<path d="M61.8982 70.6731L64.3927 72.7383V78.7896H61.8982V70.6731Z" fill="#2F2E41"/>
<path d="M70.6291 73.3787H68.1345V78.7897H70.6291V73.3787Z" fill="#2F2E41"/>
<path d="M64.3927 81.4951C65.7704 81.4951 66.8873 80.8894 66.8873 80.1423C66.8873 79.3952 65.7704 78.7896 64.3927 78.7896C63.015 78.7896 61.8982 79.3952 61.8982 80.1423C61.8982 80.8894 63.015 81.4951 64.3927 81.4951Z" fill="#2F2E41"/>
<path d="M70.6291 81.4951C72.0068 81.4951 73.1236 80.8894 73.1236 80.1423C73.1236 79.3952 72.0068 78.7896 70.6291 78.7896C69.2514 78.7896 68.1345 79.3952 68.1345 80.1423C68.1345 80.8894 69.2514 81.4951 70.6291 81.4951Z" fill="#2F2E41"/>
<path d="M55.8119 54.8075C54.9924 50.5521 57.612 46.2522 61.663 45.2034C65.714 44.1546 69.6623 46.754 70.4818 51.0094C71.3013 55.2649 68.6166 56.8343 64.5656 57.8831C60.5146 58.9319 56.6314 59.0629 55.8119 54.8075H55.8119Z" fill="#0066FF"/>
<path d="M59.1325 61.8573C59.5167 60.9788 57.7365 59.1907 55.1563 57.8634C52.5761 56.5362 50.173 56.1725 49.7889 57.0509C49.4047 57.9294 51.1849 59.7175 53.7651 61.0448C56.3453 62.372 58.7483 62.7358 59.1325 61.8573Z" fill="#2F2E41"/>
<path d="M21.3618 65.2622C27.2171 65.2622 31.9636 70.0586 31.9636 75.9752C31.9636 81.8918 27.2171 84.2007 21.3618 84.2007C15.5066 84.2007 10.76 81.8918 10.76 75.9752C10.76 70.0586 15.5066 65.2622 21.3618 65.2622Z" fill="#2F2E41"/>
<path d="M16.9963 82.8479L19.4909 84.9131V90.9644H16.9963V82.8479Z" fill="#2F2E41"/>
<path d="M25.7272 85.5535H23.2327V90.9645H25.7272V85.5535Z" fill="#2F2E41"/>
<path d="M19.4909 92.3171C20.8686 92.3171 21.9854 91.7114 21.9854 90.9643C21.9854 90.2172 20.8686 89.6116 19.4909 89.6116C18.1132 89.6116 16.9963 90.2172 16.9963 90.9643C16.9963 91.7114 18.1132 92.3171 19.4909 92.3171Z" fill="#2F2E41"/>
<path d="M25.7272 92.3171C27.1049 92.3171 28.2218 91.7114 28.2218 90.9643C28.2218 90.2172 27.1049 89.6116 25.7272 89.6116C24.3495 89.6116 23.2327 90.2172 23.2327 90.9643C23.2327 91.7114 24.3495 92.3171 25.7272 92.3171Z" fill="#2F2E41"/>
<path d="M21.3618 77.4368C23.084 77.4368 24.48 75.6199 24.48 73.3786C24.48 71.1373 23.084 69.3203 21.3618 69.3203C19.6397 69.3203 18.2437 71.1373 18.2437 73.3786C18.2437 75.6199 19.6397 77.4368 21.3618 77.4368Z" fill="white"/>
<path d="M21.9854 74.7314C22.6743 74.7314 23.2327 74.1257 23.2327 73.3786C23.2327 72.6315 22.6743 72.0259 21.9854 72.0259C21.2966 72.0259 20.7382 72.6315 20.7382 73.3786C20.7382 74.1257 21.2966 74.7314 21.9854 74.7314Z" fill="#3F3D56"/>
<path d="M10.9226 65.6295C10.0348 61.3741 12.8727 57.0742 17.2612 56.0254C21.6498 54.9766 25.9271 57.5761 26.8149 61.8315C27.7027 66.0869 24.7943 67.6563 20.4057 68.7051C16.0172 69.7539 11.8104 69.8849 10.9226 65.6295L10.9226 65.6295Z" fill="#E6E6E6"/>
<path d="M28.8716 35.946C29.8912 33.053 30.0388 30.4263 29.2014 30.0792C28.364 29.732 26.8587 31.7959 25.8391 34.6889C24.8196 37.582 24.6719 40.2087 25.5093 40.5558C26.3467 40.9029 27.852 38.8391 28.8716 35.946Z" fill="#2F2E41"/>
<path d="M7.15666 42.3728C8.09443 36.1574 13.5392 31.9365 19.318 32.9451C25.0967 33.9537 29.0211 39.8099 28.0834 46.0253C27.1456 52.2407 21.7008 53.8143 15.922 52.8057C10.1433 51.7971 6.2189 48.5882 7.15666 42.3728V42.3728Z" fill="#2F2E41"/>
<path d="M13.2545 50.3818L15.7491 52.447V58.4983H13.2545V50.3818Z" fill="#2F2E41"/>
<path d="M23.2328 53.0874H19.491V58.4984H23.2328V53.0874Z" fill="#2F2E41"/>
<path d="M15.7491 59.851C17.1268 59.851 18.2436 59.5482 18.2436 59.1747C18.2436 58.8011 17.1268 58.4983 15.7491 58.4983C14.3714 58.4983 13.2545 58.8011 13.2545 59.1747C13.2545 59.5482 14.3714 59.851 15.7491 59.851Z" fill="#2F2E41"/>
<path d="M21.9855 59.851C23.3632 59.851 24.4801 59.2454 24.4801 58.4983C24.4801 57.7512 23.3632 57.1455 21.9855 57.1455C20.6078 57.1455 19.491 57.7512 19.491 58.4983C19.491 59.2454 20.6078 59.851 21.9855 59.851Z" fill="#2F2E41"/>
<path d="M18.2437 44.971C20.3102 44.971 21.9855 43.1541 21.9855 40.9127C21.9855 38.6714 20.3102 36.8545 18.2437 36.8545C16.1771 36.8545 14.5018 38.6714 14.5018 40.9127C14.5018 43.1541 16.1771 44.971 18.2437 44.971Z" fill="white"/>
<path d="M18.2436 42.2653C18.9325 42.2653 19.4909 41.6597 19.4909 40.9126C19.4909 40.1655 18.9325 39.5598 18.2436 39.5598C17.5548 39.5598 16.9963 40.1655 16.9963 40.9126C16.9963 41.6597 17.5548 42.2653 18.2436 42.2653Z" fill="#3F3D56"/>
<path d="M7.18074 33.1634C6.29294 28.908 9.13087 24.6081 13.5194 23.5593C17.908 22.5105 22.1853 25.11 23.0731 29.3654C23.9609 33.6208 21.0524 35.1903 16.6639 36.2391C12.2753 37.2879 8.06853 37.4189 7.18073 33.1634H7.18074Z" fill="#0066FF"/>
<path d="M10.8211 40.9862C11.2053 40.1077 9.42506 38.3196 6.84489 36.9924C4.26471 35.6651 1.86163 35.3014 1.47746 36.1799C1.09329 37.0583 2.87351 38.8464 5.45369 40.1737C8.03387 41.5009 10.4369 41.8647 10.8211 40.9862Z" fill="#2F2E41"/>
<path d="M13.2545 47.5176C13.2545 48.4805 15.597 50.382 18.1963 50.382C20.7956 50.382 23.2327 47.671 23.2327 46.7081C23.2327 45.7452 20.7956 46.8949 18.1963 46.8949C15.597 46.8949 13.2545 46.5547 13.2545 47.5176Z" fill="white"/>
<path d="M27.7024 0.33008C27.3006 0.330567 26.9749 0.693679 26.9745 1.14174V34.6899C26.9749 35.138 27.3006 35.5011 27.7024 35.5016H97.3411C97.7429 35.5011 98.0686 35.138 98.069 34.6899V1.14173C98.0686 0.693675 97.7429 0.330569 97.3411 0.330082L27.7024 0.330078V0.33008Z" fill="#0066FF"/>
<path d="M46.3073 26.0324C50.0959 26.0324 53.1673 22.7013 53.1673 18.5922C53.1673 14.4832 50.0959 11.1521 46.3073 11.1521C42.5186 11.1521 39.4473 14.4832 39.4473 18.5922C39.4473 22.7013 42.5186 26.0324 46.3073 26.0324Z" fill="white"/>
<path d="M62.7019 16.5631C62.2507 16.5692 61.8909 16.877 61.8983 17.2505C61.9055 17.6153 62.2611 17.9097 62.7019 17.9156H84.7658C85.217 17.9218 85.5889 17.624 85.5963 17.2505C85.6037 16.877 85.2439 16.5692 84.7926 16.5631C84.7837 16.563 84.7747 16.563 84.7658 16.5631H62.7019H62.7019Z" fill="white"/>
<path d="M62.6905 11.1523C62.2457 11.1646 61.891 11.7801 61.8983 12.5271C61.9054 13.2568 62.256 13.8454 62.6905 13.8574H73.5519C73.9967 13.8699 74.3634 13.2745 74.3708 12.5275C74.3782 11.7805 74.0237 11.1648 73.5789 11.1523L73.5784 11.1523C73.5695 11.152 73.5607 11.152 73.5519 11.1523H62.6905V11.1523Z" fill="white"/>
<path d="M62.7019 21.9742C62.2507 21.9804 61.8909 22.2881 61.8983 22.6616C61.9055 23.0265 62.2611 23.3208 62.7019 23.3268H84.7658C85.217 23.3329 85.5889 23.0351 85.5963 22.6616C85.6037 22.2881 85.2439 21.9804 84.7926 21.9742C84.7837 21.9741 84.7747 21.9741 84.7658 21.9742H62.7019H62.7019Z" fill="white"/>
<path d="M68.1346 15.2103C69.5123 15.2103 70.6291 13.6962 70.6291 11.8284C70.6291 9.96065 69.5123 8.44653 68.1346 8.44653C66.7569 8.44653 65.64 9.96065 65.64 11.8284C65.64 13.6962 66.7569 15.2103 68.1346 15.2103Z" fill="#3F3D56"/>
<path d="M75.6182 20.6215C76.9959 20.6215 78.1127 19.4102 78.1127 17.916C78.1127 16.4217 76.9959 15.2104 75.6182 15.2104C74.2405 15.2104 73.1237 16.4217 73.1237 17.916C73.1237 19.4102 74.2405 20.6215 75.6182 20.6215Z" fill="#3F3D56"/>
<path d="M81.2309 26.0323C82.953 26.0323 84.349 24.821 84.349 23.3268C84.349 21.8326 82.953 20.6213 81.2309 20.6213C79.5087 20.6213 78.1127 21.8326 78.1127 23.3268C78.1127 24.821 79.5087 26.0323 81.2309 26.0323Z" fill="#3F3D56"/>
</svg>
